Coordinates
version=1
nRows=5
nColumns=42
inDegrees=yes

Units are S.I. units (second, meters, Newtons, ...)
If the header above contains a line with 'inDegrees', this indicates whether rotational values are in degrees (yes) or radians (no).

endheader
time	pelvis_tilt	pelvis_list	pelvis_rotation	pelvis_tx	pelvis_ty	pelvis_tz	hip_flexion_r	hip_adduction_r	hip_rotation_r	knee_angle_r	knee_adduction_r	knee_angle_r_beta	ankle_angle_r	subtalar_angle_r	mtp_angle_r	hip_flexion_l	hip_adduction_l	hip_rotation_l	knee_angle_l	knee_adduction_l	knee_angle_l_beta	ankle_angle_l	subtalar_angle_l	mtp_angle_l	lumbar_extension	lumbar_bending	lumbar_rotation	arm_flex_r	arm_add_r	arm_rot_r	elbow_flex_r	pro_sup_r	wrist_flex_r	wrist_dev_r	arm_flex_l	arm_add_l	arm_rot_l	elbow_flex_l	pro_sup_l	wrist_flex_l	wrist_dev_l
      0.55000000	      7.09116801	      0.65829433	      0.60438893	     -0.60782752	      1.00618082	     -0.26666047	     18.69343286	     -6.00913015	    -10.20088056	     17.72042858	      8.53621236	      0.30927982	      1.25916789	     -6.23234535	     -7.85585034	    -19.75215409	     -3.49750287	      1.79223446	      6.12418573	     12.64885526	      0.10688720	     13.93414251	      2.08284989	     -7.85585034	    -16.46154735	     -1.86598787	     -2.88645652	     -8.79804260	     -7.10273939	    -11.22445364	     11.52049806	     90.00000001	      0.00000000	      0.00000000	     22.29924541	    -19.92542057	      2.15556051	     36.03044426	     90.00000001	      0.00000000	      0.00000000
      0.56000000	      7.09091286	      0.60890097	      0.82459252	     -0.59373864	      1.00357194	     -0.26587143	     18.34009216	     -5.89469590	    -11.07564432	     14.29591054	      8.85097772	      0.24951071	      1.30918774	     -4.42734837	     -7.84109024	    -20.58129629	     -3.73057699	      1.71363923	      6.26530196	     12.70844382	      0.10935015	     14.34952754	      2.61529842	     -7.84109024	    -16.44912420	     -1.73812271	     -3.01409623	     -9.15182361	     -6.95861647	    -13.15031964	     11.72138824	     90.00000001	      0.00000000	      0.00000000	     22.87042106	    -20.36696978	      2.84475549	     37.13226959	     90.00000001	      0.00000000	      0.00000000
      0.57000000	      6.88800610	      0.76187775	      1.01552651	     -0.57972153	      1.00070275	     -0.26525220	     18.35159831	     -6.07322973	    -11.75851741	     11.48354413	      9.30435061	      0.20042565	      1.41992390	     -2.74573819	     -7.82536611	    -21.09682538	     -3.71662983	      1.72239142	      6.58156588	     12.74322837	      0.11486999	     14.76450279	      3.03186745	     -7.82536611	    -16.23019616	     -1.80475163	     -3.22854399	     -9.46342293	     -6.84902219	    -14.98814413	     12.09665553	     90.00000001	      0.00000000	      0.00000000	     23.34816695	    -20.75346342	      3.25434044	     38.08682102	     90.00000001	      0.00000000	      0.00000000
      0.58000000	      6.38000789	      1.07049777	      1.13374971	     -0.56565857	      0.99746028	     -0.26494003	     18.84414336	     -6.53456555	    -12.16620644	      9.36004643	      9.96794991	      0.16336363	      1.40228528	     -1.49358021	     -7.82063354	    -21.22555043	     -3.42483830	      1.83729643	      7.01110034	     12.63378827	      0.12236679	     15.06810265	      3.14280242	     -7.82063354	    -15.65145497	     -2.01896824	     -3.43339398	    -10.04511278	     -6.83648037	    -15.72189761	     12.92958368	     90.00000001	      0.00000000	      0.00000000	     23.70921632	    -20.99395375	      3.30042363	     38.87118002	     90.00000001	      0.00000000	      0.00000000
      0.59000000	      6.44206890	      1.01367084	      1.45655354	     -0.55125025	      0.99502872	     -0.26407802	     18.61324340	     -6.46070583	    -12.85814526	      7.55207092	     10.24762827	      0.13180850	      1.72148019	      0.25609085	     -7.79980165	    -21.98194743	     -3.77487418	      2.03195594	      7.41442195	     12.76229594	      0.12940608	     15.38801813	      3.58993217	     -7.79980165	    -15.71399719	     -1.84780555	     -3.66558887	    -10.17877702	     -6.65787450	    -18.03926799	     13.02360612	     90.00000001	      0.00000000	      0.00000000	     24.03636884	    -21.37420501	      3.71855472	     39.92077164	     90.00000001	      0.00000000	      0.00000000
